<svg width="32" height="32" viewBox="0 0 32 32" fill="none" xmlns="http://www.w3.org/2000/svg">
<path d="M10.7124 27.9763L14.009 24.7687C12.8317 24.546 11.7485 24.1005 10.7595 23.4768L10.7124 27.9763Z" fill="#FFE62E"/>
<path d="M21.544 3.29565L18.2473 6.5032C19.4247 6.72594 20.5079 7.17143 21.4969 7.79512L21.544 3.29565" fill="#FFE62E"/>
<path d="M3.0835 20.7586L7.84008 20.714C7.18075 19.7785 6.7098 18.7539 6.47433 17.6401L3.0835 20.7586Z" fill="#FFE62E"/>
<path d="M29.1741 10.5122L24.4175 10.5568C25.0297 11.4923 25.5007 12.5169 25.7832 13.6306L29.1741 10.5122Z" fill="#FFE62E"/>
<path d="M3.0835 10.5122L6.47433 13.6306C6.7098 12.5169 7.18075 11.4923 7.84008 10.5568L3.0835 10.5122" fill="#FFE62E"/>
<path d="M29.1741 20.7586L25.7832 17.6401C25.5478 18.7539 25.0768 19.7785 24.4175 20.714L29.1741 20.7586Z" fill="#FFE62E"/>
<path d="M10.7124 3.29565L10.7595 7.79512C11.7485 7.21598 12.8317 6.77049 14.009 6.5032L10.7124 3.29565" fill="#FFE62E"/>
<path d="M21.544 27.9763L21.4969 23.4768C20.5079 24.1005 19.4247 24.546 18.2473 24.7687L21.544 27.9763Z" fill="#FFE62E"/>
<path d="M8.02833 20.9814L6.14453 25.1245L10.5244 23.3426C9.53536 22.6743 8.68765 21.8724 8.02833 20.9814Z" fill="#FFCE31"/>
<path d="M24.229 10.2896L26.1128 6.14648L21.78 7.92845C22.7219 8.59669 23.5696 9.39858 24.229 10.2896Z" fill="#FFCE31"/>
<path d="M6.42692 13.9878L2 15.6361L6.42692 17.2844C6.28563 16.7498 6.23854 16.2153 6.23854 15.6361C6.23854 15.057 6.28563 14.5224 6.42692 13.9878Z" fill="#FFCE31"/>
<path d="M25.8301 17.2844L30.257 15.6361L25.8301 13.9878C25.9243 14.5224 26.0185 15.1015 26.0185 15.6361C26.0185 16.2153 25.9714 16.7498 25.8301 17.2844Z" fill="#FFCE31"/>
<path d="M10.4772 7.97337L6.09741 6.19141L7.98121 10.3345C8.68763 9.39895 9.53534 8.59706 10.4772 7.97337Z" fill="#FFCE31"/>
<path d="M21.78 23.2979L26.1598 25.0798L24.2761 20.9368C23.5696 21.8723 22.7219 22.6742 21.78 23.2979Z" fill="#FFCE31"/>
<path d="M17.871 6.45838L16.1285 2.27075L14.386 6.45838C14.9511 6.36928 15.5634 6.28018 16.1285 6.28018C16.6936 6.28018 17.3059 6.32473 17.871 6.45838Z" fill="#FFCE31"/>
<path d="M14.386 24.8123L16.1285 28.9999L17.871 24.8123C17.3059 24.9459 16.7407 24.9905 16.1285 24.9905C15.5163 24.9905 14.9511 24.9459 14.386 24.8123Z" fill="#FFCE31"/>
<path d="M16.1287 24.0996C21.0705 24.0996 25.0767 20.31 25.0767 15.6352C25.0767 10.9605 21.0705 7.1709 16.1287 7.1709C11.1868 7.1709 7.18066 10.9605 7.18066 15.6352C7.18066 20.31 11.1868 24.0996 16.1287 24.0996Z" fill="#FFCE31"/>
</svg>
